<?xml version="1.0" encoding="UTF-8" standalone="no"?>
<!-- Created with Inkscape (http://www.inkscape.org/) -->

<svg
   width="190.49998mm"
   height="190.49998mm"
   viewBox="0 0 190.49998 190.49998"
   version="1.1"
   id="svg5"
   xmlns="http://www.w3.org/2000/svg"
   xmlns:svg="http://www.w3.org/2000/svg">
  <defs
     id="defs2" />
  <g
     id="layer1">
    <circle
       style="fill:none;fill-rule:evenodd;stroke:#4b4b4b;stroke-width:5.14864;stroke-miterlimit:4;stroke-dasharray:none;stroke-opacity:1"
       id="path454"
       cx="95.249992"
       cy="95.249992"
       r="92.675674" />
    <path
       style="fill:#ed3643;fill-opacity:1;fill-rule:evenodd;stroke:none;stroke-width:5.14864;stroke-miterlimit:4;stroke-dasharray:none;stroke-opacity:1"
       id="path454-2"
       d="M 2.5743179,95.249992 A 92.675674,92.675674 0 0 1 95.249992,2.5743179 92.675674,92.675674 0 0 1 187.92567,95.249992 H 95.249992 Z" />
    <circle
       style="fill:#f0f0f0;fill-opacity:1;fill-rule:evenodd;stroke:none;stroke-width:5.14864;stroke-miterlimit:4;stroke-dasharray:none;stroke-opacity:1"
       id="path454-9"
       d="m 187.92567,95.249992 a 92.675674,92.675674 0 0 1 -46.33784,80.259488 92.675674,92.675674 0 0 1 -92.675677,0 A 92.675674,92.675674 0 0 1 2.5743179,95.249992 H 95.249992 Z" />
    <rect
       style="fill:#4b4b4b;fill-opacity:1;stroke:none;stroke-width:8.14086;stroke-miterlimit:4;stroke-dasharray:none;stroke-opacity:1"
       id="rect1599"
       width="190.5"
       height="6.6145835"
       x="0"
       y="93.2258" />
    <circle
       style="fill:#ffffff;fill-opacity:1;fill-rule:evenodd;stroke:#4b4b4b;stroke-width:6.02436;stroke-miterlimit:4;stroke-dasharray:none;stroke-opacity:1"
       id="path454-91"
       cx="95.25"
       cy="96.533089"
       r="23.446154" />
    <path
       style="fill:#4b4b4b;fill-opacity:1;stroke:none;stroke-width:0.192909px;stroke-linecap:butt;stroke-linejoin:miter;stroke-opacity:1"
       d="m 95.063964,84.130742 -7.751465,8.929686 h 5.457031 v 15.875012 h 4.588867 V 93.060428 h 5.829103 z"
       id="path6335" />
  </g>
</svg>
